<svg width="48" height="50" viewBox="0 0 48 50" fill="none" xmlns="http://www.w3.org/2000/svg">
<path d="M43.8211 41.5156H28.7854C26.7105 41.5156 25.0312 43.1998 25.0312 45.2593V47.7616C25.0312 48.4545 25.591 49.0127 26.2858 49.0127H46.3303C47.0251 49.0127 47.5848 48.4545 47.5848 47.7616V45.2593C47.5752 43.1998 45.896 41.5156 43.8211 41.5156ZM45.0757 46.5105H27.5308V45.2593C27.5308 44.5664 28.0905 44.0082 28.7854 44.0082H43.8211C44.5159 44.0082 45.0757 44.5664 45.0757 45.2593V46.5105Z" fill="#98DABC"/>
<path d="M44.217 20.9404C46.7744 20.2571 48.2992 17.6203 47.614 15.0701C46.9288 12.5199 44.2845 10.9994 41.7271 11.6827L40.183 12.0965L39.2855 8.74758C40.9165 7.63127 41.7464 5.57187 41.206 3.55097C40.5208 1.00078 37.8765 -0.519709 35.3191 0.163549L22.9276 3.46436C20.3702 4.14762 18.8454 6.78442 19.5306 9.33461C20.071 11.3459 21.8274 12.7124 23.7962 12.876L24.6937 16.2249L3.54905 21.8738C1.07848 22.5378 -0.513879 25.2805 0.152017 27.7441C0.817914 30.2077 3.56835 31.7955 6.03893 31.1315L27.1932 25.4826L28.0907 28.8315C26.4597 29.9478 25.6298 32.0072 26.1702 34.0281C26.8554 36.5783 29.4997 38.0988 32.0571 37.4156L44.4389 34.1051C46.9964 33.4219 48.5212 30.7851 47.836 28.2349C47.2955 26.2236 45.5391 24.8571 43.5704 24.6935L42.6729 21.3445L44.217 20.9404ZM42.5571 14.7622C43.4063 14.5312 44.2942 15.0413 44.5162 15.8881C44.7478 16.735 44.2363 17.6203 43.387 17.8417L41.8429 18.2555L41.013 15.1664L42.5571 14.7622ZM5.20897 28.052C4.51412 28.2349 3.47185 27.7537 3.24988 26.9261C3.02792 26.0985 3.68416 25.1554 4.37901 24.9726L25.5333 19.314L26.3632 22.4031L5.20897 28.052ZM43.609 31.0256L31.2272 34.3361C30.3779 34.567 29.4901 34.057 29.2681 33.2101C29.0365 32.3633 29.548 31.4779 30.3972 31.2566L42.779 27.9365C43.6283 27.7056 44.5162 28.2156 44.7381 29.0625C44.9697 29.919 44.4582 30.7947 43.609 31.0256ZM31.1114 27.7441L26.9616 12.3082L36.2455 9.8254C36.6509 11.3363 39.9803 23.7215 40.3953 25.2613L31.1114 27.7441ZM36.9693 6.33212L24.5875 9.64255C23.7383 9.87351 22.8504 9.36347 22.6284 8.51662C22.4065 7.66976 22.9083 6.78442 23.7576 6.56308L36.1394 3.25265C36.9886 3.02169 37.8765 3.53172 38.0985 4.37858C38.3397 5.22543 37.8282 6.10116 36.9693 6.33212Z" fill="#98DABC"/>
</svg>
