<svg width="21" height="18" viewBox="0 0 21 18" fill="none" xmlns="http://www.w3.org/2000/svg">
<path d="M17.7774 1.4421C16.4389 0.775012 15.0036 0.283529 13.5029 0.00203532C13.4756 -0.00339741 13.4483 0.0101793 13.4342 0.0373333C13.2496 0.39395 13.0451 0.859186 12.902 1.22486C11.2879 0.962379 9.68203 0.962379 8.10103 1.22486C7.95782 0.851058 7.74592 0.39395 7.5605 0.0373333C7.54642 0.0110853 7.51912 -0.00249142 7.49179 0.00203532C5.99192 0.282629 4.55661 0.774113 3.21732 1.4421C3.20572 1.44753 3.19579 1.45659 3.18919 1.46835C0.466718 5.88631 -0.279081 10.1957 0.0867826 14.4516C0.088438 14.4724 0.0991986 14.4924 0.114098 14.505C1.91031 15.9378 3.65024 16.8077 5.35787 17.3842C5.3852 17.3933 5.41415 17.3824 5.43155 17.358C5.83549 16.7588 6.19556 16.127 6.50429 15.4626C6.52251 15.4237 6.50512 15.3776 6.46788 15.3622C5.89674 15.1268 5.3529 14.8399 4.82976 14.5141C4.78838 14.4878 4.78507 14.4235 4.82314 14.3928C4.93323 14.3032 5.04334 14.2099 5.14846 14.1158C5.16748 14.0986 5.19398 14.095 5.21634 14.1058C8.65312 15.8102 12.3739 15.8102 15.7701 14.1058C15.7924 14.0941 15.8189 14.0977 15.8388 14.1149C15.9439 14.209 16.054 14.3032 16.1649 14.3928C16.203 14.4235 16.2005 14.4878 16.1591 14.5141C15.636 14.8462 15.0922 15.1268 14.5202 15.3613C14.483 15.3767 14.4664 15.4237 14.4846 15.4626C14.8 16.1261 15.16 16.7579 15.5565 17.3571C15.5731 17.3824 15.6029 17.3933 15.6302 17.3842C17.3461 16.8077 19.086 15.9378 20.8822 14.505C20.898 14.4924 20.9079 14.4733 20.9096 14.4525C21.3474 9.53218 20.1762 5.25816 17.8047 1.46925C17.7989 1.45659 17.789 1.44753 17.7774 1.4421ZM7.01752 11.8602C5.98281 11.8602 5.13024 10.8284 5.13024 9.56116C5.13024 8.29396 5.96628 7.26213 7.01752 7.26213C8.07701 7.26213 8.92133 8.30302 8.90477 9.56116C8.90477 10.8284 8.06873 11.8602 7.01752 11.8602ZM13.9954 11.8602C12.9607 11.8602 12.1082 10.8284 12.1082 9.56116C12.1082 8.29396 12.9442 7.26213 13.9954 7.26213C15.0549 7.26213 15.8992 8.30302 15.8827 9.56116C15.8827 10.8284 15.0549 11.8602 13.9954 11.8602Z" fill="white"/>
</svg>
