<svg width="48" height="48" viewBox="0 0 48 48" fill="none" xmlns="http://www.w3.org/2000/svg">
<path d="M48 19.7165L43.6 0H4.4L0.048 19.2887L0 21.6882C0.0072534 23.5914 0.71835 25.4266 2 26.8499V41.4047C2 42.9734 2.63214 44.4779 3.75736 45.5872C4.88258 46.6965 6.4087 47.3196 8 47.3196H40C41.5913 47.3196 43.1174 46.6965 44.2426 45.5872C45.3679 44.4779 46 42.9734 46 41.4047V26.8499C47.2817 25.4266 47.9927 23.5914 48 21.6882V19.7165ZM4 19.9314L7.6 3.9433H14V11.8299H18V3.9433H30V11.8299H34V3.9433H40.4L44 19.9314V21.6882C44 22.734 43.5786 23.737 42.8284 24.4765C42.0783 25.216 41.0609 25.6315 40 25.6315H38C36.9391 25.6315 35.9217 25.216 35.1716 24.4765C34.4214 23.737 34 22.734 34 21.6882H30C30 22.734 29.5786 23.737 28.8284 24.4765C28.0783 25.216 27.0609 25.6315 26 25.6315H22C20.9391 25.6315 19.9217 25.216 19.1716 24.4765C18.4214 23.737 18 22.734 18 21.6882H14C14 22.734 13.5786 23.737 12.8284 24.4765C12.0783 25.216 11.0609 25.6315 10 25.6315H8C6.93913 25.6315 5.92172 25.216 5.17157 24.4765C4.42143 23.737 4 22.734 4 21.6882V19.9314ZM40 43.3763H8C7.46957 43.3763 6.96086 43.1686 6.58579 42.7989C6.21071 42.4291 6 41.9276 6 41.4047V29.2948C6.65172 29.4723 7.32391 29.5664 8 29.5748H10C11.1398 29.5711 12.2655 29.326 13.3007 28.8558C14.3359 28.3857 15.2565 27.7016 16 26.8499C16.7435 27.7016 17.6641 28.3857 18.6993 28.8558C19.7345 29.326 20.8602 29.5711 22 29.5748H26C27.1356 29.5754 28.2583 29.337 29.293 28.8756C30.3277 28.4142 31.2506 27.7404 32 26.8992C32.7494 27.7404 33.6723 28.4142 34.707 28.8756C35.7417 29.337 36.8644 29.5754 38 29.5748H40C40.6761 29.5664 41.3483 29.4723 42 29.2948V41.4047C42 41.9276 41.7893 42.4291 41.4142 42.7989C41.0391 43.1686 40.5304 43.3763 40 43.3763Z" fill="#98DABC"/>
</svg>
