<svg width="23" height="23" viewBox="0 0 23 23" fill="none" xmlns="http://www.w3.org/2000/svg">
<path d="M23 6.79049V16.0406C22.9873 16.1208 22.9715 16.2006 22.9629 16.2812C22.9141 16.7319 22.8911 17.1902 22.8151 17.6377C22.5706 19.0798 21.9527 20.3317 20.8412 21.3141C19.6384 22.3795 18.1874 22.804 16.6189 22.9099C16.0765 22.9468 15.5291 22.9707 14.9844 23H8.04957C7.90854 22.9874 7.76751 22.9676 7.62648 22.9639C6.70347 22.9405 5.7818 22.9045 4.87958 22.6841C2.98111 22.2199 1.57173 21.1438 0.731882 19.3704C0.209352 18.2673 0.0515975 17.0811 0.0389411 15.877C0.0131762 13.4011 -0.00626084 10.9248 0.00187545 8.44889C0.00594359 7.32226 0.0176964 6.18797 0.262237 5.07711C0.695268 3.11002 1.77197 1.63323 3.6171 0.760316C4.70872 0.245221 5.88215 0.0915489 7.07231 0.0649604C10.2527 -0.0102985 13.4335 -0.0468014 16.6126 0.10642C17.5392 0.151486 18.4446 0.331746 19.2944 0.713449C21.4048 1.66703 22.5141 3.35743 22.8612 5.59446C22.9241 5.98923 22.9548 6.39122 23 6.79049ZM11.4872 20.9689V20.9338C12.1023 20.9338 12.7184 20.9518 13.3332 20.9297C14.644 20.8846 15.9648 20.8991 17.2626 20.7359C19.0354 20.5133 20.235 19.4939 20.6685 17.7341C20.8434 17.023 20.9031 16.2704 20.9158 15.5349C20.9552 13.2231 20.9665 10.911 20.9497 8.59851C20.9494 7.671 20.8939 6.74433 20.7833 5.82339C20.5501 3.96896 19.3956 2.71615 17.5559 2.34932C16.7676 2.19204 15.9481 2.14517 15.1417 2.13345C12.9811 2.10341 10.82 2.09996 8.65844 2.12309C7.64818 2.13481 6.62436 2.16004 5.63264 2.32002C3.90006 2.59898 2.74787 3.62151 2.35688 5.34976C2.1824 6.12308 2.13313 6.9347 2.11505 7.731C2.07256 9.5937 2.06111 11.4564 2.0807 13.3191C2.09471 14.6044 2.1259 15.8941 2.25518 17.1722C2.3849 18.4705 3.00869 19.5295 4.16901 20.2082C4.89585 20.6336 5.70587 20.8103 6.53622 20.8391C8.18653 20.8995 9.83729 20.9302 11.4872 20.9689Z" fill="white"/>
<path d="M11.5111 17.4151C8.23897 17.4079 5.58066 14.7517 5.5897 11.4998C5.59965 8.23528 8.26699 5.5877 11.5278 5.60528C13.0954 5.6079 14.5979 6.23063 15.7054 7.33673C16.8129 8.44282 17.4349 9.94188 17.4348 11.5048C17.4384 14.7643 14.7747 17.4214 11.5111 17.4151ZM7.67711 11.5066C7.67702 12.2635 7.90214 13.0035 8.32399 13.6328C8.74584 14.2622 9.34546 14.7527 10.047 15.0422C10.7485 15.3317 11.5204 15.4072 12.265 15.2592C13.0096 15.1112 13.6934 14.7464 14.2299 14.2108C14.7665 13.6753 15.1316 12.9931 15.2792 12.2506C15.4267 11.508 15.35 10.7386 15.0588 10.0395C14.7676 9.34047 14.275 8.74324 13.6432 8.32341C13.0115 7.90357 12.269 7.68 11.5098 7.68098C11.0059 7.68027 10.5068 7.77877 10.0412 7.97082C9.57556 8.16288 9.15257 8.44471 8.79647 8.80015C8.44038 9.15559 8.15818 9.57764 7.9661 10.0421C7.77401 10.5065 7.6758 11.0042 7.67711 11.5066Z" fill="white"/>
<path d="M19.0507 5.35336C19.054 5.62495 18.9765 5.89142 18.8281 6.11917C18.6796 6.34692 18.4669 6.52576 18.2167 6.63313C17.9664 6.74051 17.6899 6.77161 17.4219 6.72252C17.154 6.67343 16.9066 6.54635 16.711 6.3573C16.5154 6.16824 16.3804 5.92568 16.3228 5.6602C16.2653 5.39471 16.2879 5.11819 16.3878 4.86549C16.4877 4.6128 16.6604 4.39525 16.8841 4.24027C17.1078 4.08529 17.3726 3.99982 17.645 3.99464C17.8271 3.99045 18.0083 4.02242 18.1779 4.08869C18.3476 4.15495 18.5023 4.25419 18.6331 4.38063C18.7639 4.50707 18.8682 4.65818 18.9399 4.82518C19.0116 4.99217 19.0493 5.17172 19.0507 5.35336Z" fill="white"/>
</svg>
