<svg width="1300" height="120" viewBox="0 0 1300 120" fill="none" xmlns="http://www.w3.org/2000/svg">
<path d="M1044.67 60.3013C1044.26 60.3076 1044.18 61.8742 1042.61 63.8916C1041.67 65.107 1040.61 65.9245 1039.76 66.4716C1040 67.9637 1040.28 70.8794 1039.27 74.2987C1038.2 77.8921 1036.25 80.2172 1035.21 81.2989C1035.76 79.1727 1036.27 76.4404 1036.37 73.2387C1036.45 70.8017 1036.27 68.6413 1036.02 66.8384C1034.18 65.4241 1028.88 60.9572 1026.91 53.0804C1023.85 40.7896 1031.58 31.0446 1032.4 30.0437C1031.97 28.3652 1031.15 26.0711 1029.47 23.8393C1027.1 20.6811 1024.23 19.2854 1024.38 19.0367C1024.53 18.7725 1027.72 20.364 1030.57 22.2166C1031.81 23.0186 1033.17 23.9076 1034.84 25.3437C1036.18 26.5032 1037.24 27.6036 1037.33 27.5134C1037.43 27.4202 1036.37 26.1084 1036.21 25.9095C1019.93 5.6424 997.003 9.08967 997.003 9.08967C978.772 11.8313 969.19 27.4295 966.821 31.2871C956.875 47.4759 952.836 74.4697 968.248 92.0759C983.569 109.583 1007.71 105.933 1012.25 105.246C1016.54 104.6 1041.17 100.326 1046.76 82.8656C1050.07 72.5175 1045.82 60.2796 1044.67 60.3013H1044.67ZM1004.98 74.1153C1005.49 76.0425 1006.05 79.1137 1005.7 82.8656C1005.3 87.09 1003.92 90.2854 1002.95 92.1225C1003.21 89.7135 1003.31 86.4123 1002.66 82.5889C1002.16 79.5706 1001.32 77.0559 1000.52 75.1286C995.086 72.3155 992.158 68.7252 990.626 66.3784C983.936 56.1205 985.266 40.8704 993.702 27.557C993.825 26.1955 993.858 24.032 993.169 21.5235C992.363 18.5922 990.945 16.5531 990.048 15.4464C991.285 16.2329 993.594 17.9425 995.264 21.0199C996.317 22.9565 996.76 24.7718 996.958 26.0369C999.059 27.271 1007.98 32.8196 1011.31 44.3674C1015.9 60.2236 1005.82 73.0833 1004.98 74.1153Z" fill="white"/>
<path d="M355.454 95H375.054V55.8L388.454 95H404.854L418.154 56.1V95H437.754V24.5H414.154L396.854 70.3L379.154 24.5H355.454V95ZM518.811 59.5C518.811 38.3 502.811 23.4 482.711 23.4C462.711 23.4 446.511 38.3 446.511 59.5C446.511 80.7 462.711 95.7 482.711 95.7C502.711 95.7 518.811 80.7 518.811 59.5ZM466.511 59.5C466.511 48.4 472.511 41.4 482.711 41.4C492.811 41.4 498.911 48.4 498.911 59.5C498.911 70.4 492.811 77.5 482.711 77.5C472.511 77.5 466.511 70.4 466.511 59.5ZM566.021 73C566.021 77.2 563.521 79.2 558.621 79.2H547.221V66.4H558.521C563.321 66.4 566.021 68.7 566.021 73ZM564.521 46.4C564.521 50.5 561.921 52.5 557.121 52.5H547.221V40.1H557.121C561.921 40.1 564.521 42.2 564.521 46.4ZM586.121 75.8C586.121 67.8 581.021 60.7 572.621 58.8C579.521 56.9 584.521 51.3 584.521 42.8C584.521 31.1 575.721 24.5 561.421 24.5H527.621V95H562.521C577.621 95 586.121 87.7 586.121 75.8ZM647.611 73.6C647.611 51 613.711 54.4 613.711 43.9C613.711 40.5 616.011 38.8 618.911 38.9C622.511 38.9 625.211 40.9 625.411 45.3H646.711C646.011 31.3 635.411 23.4 619.211 23.4C604.311 23.4 592.811 30.8 592.811 44.6C592.511 69.1 626.711 63.8 626.811 75.1C626.811 78.4 624.111 80.2 620.611 80.2C617.011 80.2 613.911 78.4 613.511 73.1H592.611C593.411 88.2 605.611 95.7 621.311 95.7C638.011 95.7 647.611 86 647.611 73.6ZM674.323 59.5C674.323 48.4 680.323 41.4 690.523 41.4C700.623 41.4 706.723 48.4 706.723 59.5C706.723 70.4 700.623 77.5 690.523 77.5C680.323 77.5 674.323 70.4 674.323 59.5ZM726.623 59.5C726.623 38.3 710.623 23.4 690.523 23.4C670.523 23.4 654.323 38.3 654.323 59.5C654.323 80.7 670.523 95.7 690.523 95.7C692.823 95.7 695.023 95.5 697.223 95.1L705.023 106.8H728.423L713.523 87.8C721.523 81.4 726.623 71.4 726.623 59.5ZM735.232 65.4C735.232 85.5 748.032 95.7 765.032 95.7C781.932 95.7 795.932 85.5 795.932 65.4V24.5H776.332V65.4C776.332 72.7 772.832 77.3 765.432 77.3C758.032 77.3 754.732 72.7 754.732 65.4V24.5H735.232V65.4ZM855.123 95H875.823L850.223 24.5H827.623L801.923 95H822.523L826.323 83.5H851.323L855.123 95ZM846.423 68.5H831.323L838.823 45.7L846.423 68.5ZM910.111 24.5H882.211V95H910.111C932.611 95 946.911 80.1 946.911 59.7C946.911 39 932.611 24.5 910.111 24.5ZM901.811 77.7V41.5H908.611C919.911 41.5 927.011 48 927.011 59.7C927.011 71.3 919.911 77.7 908.611 77.7H901.811Z" fill="#98DABC"/>
</svg>
