<?xml version="1.0" encoding="utf-8"?>
<!-- Generator: Adobe Illustrator 26.0.1, SVG Export Plug-In . SVG Version: 6.00 Build 0)  -->
<svg version="1.1" id="Layer_1" xmlns="http://www.w3.org/2000/svg" xmlns:xlink="http://www.w3.org/1999/xlink" x="0px" y="0px"
	 viewBox="0 0 1300 120" style="enable-background:new 0 0 1300 120;" xml:space="preserve">
<style type="text/css">
	.st0{fill:#FFFFFF;}
	.st1{fill:#98DABC;}
</style>
<g>
	<path class="st0" d="M993,62.5c-0.4,0-0.5,1.6-2.1,3.6c-0.9,1.2-2,2-2.8,2.6c0.2,1.5,0.5,4.4-0.5,7.8c-1.1,3.6-3,5.9-4.1,7
		c0.6-2.1,1.1-4.9,1.2-8.1c0.1-2.4-0.1-4.6-0.3-6.4c-1.8-1.4-7.1-5.9-9.1-13.8c-3.1-12.3,4.7-22,5.5-23c-0.4-1.7-1.2-4-2.9-6.2
		c-2.4-3.2-5.2-4.6-5.1-4.8c0.2-0.3,3.3,1.3,6.2,3.2c1.2,0.8,2.6,1.7,4.3,3.1c1.3,1.2,2.4,2.3,2.5,2.2c0.1-0.1-1-1.4-1.1-1.6
		c-16.3-20.3-39.2-16.8-39.2-16.8c-18.2,2.7-27.8,18.3-30.2,22.2c-9.9,16.2-14,43.2,1.4,60.8c15.3,17.5,39.5,13.9,44,13.2
		c4.3-0.6,28.9-4.9,34.5-22.4C998.4,74.7,994.1,62.4,993,62.5L993,62.5z M953.3,76.3c0.5,1.9,1.1,5,0.7,8.8
		c-0.4,4.2-1.8,7.4-2.8,9.3c0.3-2.4,0.4-5.7-0.3-9.5c-0.5-3-1.3-5.5-2.1-7.5c-5.4-2.8-8.4-6.4-9.9-8.8c-6.7-10.3-5.4-25.5,3.1-38.8
		c0.1-1.4,0.2-3.5-0.5-6c-0.8-2.9-2.2-5-3.1-6.1c1.2,0.8,3.5,2.5,5.2,5.6c1.1,1.9,1.5,3.8,1.7,5c2.1,1.2,11,6.8,14.4,18.3
		C964.2,62.4,954.1,75.2,953.3,76.3z"/>
	<path class="st1" d="M303.7,97.2h19.6V58l13.4,39.2h16.4l13.3-38.9v38.9H386V26.7h-23.6l-17.3,45.8l-17.7-45.8h-23.7V97.2z
		 M467.1,61.7c0-21.2-16-36.1-36.1-36.1c-20,0-36.2,14.9-36.2,36.1S411,97.9,431,97.9S467.1,82.9,467.1,61.7z M414.8,61.7
		c0-11.1,6-18.1,16.2-18.1c10.1,0,16.2,7,16.2,18.1c0,10.9-6.1,18-16.2,18C420.8,79.7,414.8,72.6,414.8,61.7z M514.3,75.2
		c0,4.2-2.5,6.2-7.4,6.2h-11.4V68.6h11.3C511.6,68.6,514.3,70.9,514.3,75.2z M512.8,48.6c0,4.1-2.6,6.1-7.4,6.1h-9.9V42.3h9.9
		C510.2,42.3,512.8,44.4,512.8,48.6z M534.4,78c0-8-5.1-15.1-13.5-17c6.9-1.9,11.9-7.5,11.9-16c0-11.7-8.8-18.3-23.1-18.3h-33.8
		v70.5h34.9C525.9,97.2,534.4,89.9,534.4,78z M595.9,75.8c0-22.6-33.9-19.2-33.9-29.7c0-3.4,2.3-5.1,5.2-5c3.6,0,6.3,2,6.5,6.4H595
		c-0.7-14-11.3-21.9-27.5-21.9c-14.9,0-26.4,7.4-26.4,21.2c-0.3,24.5,33.9,19.2,34,30.5c0,3.3-2.7,5.1-6.2,5.1
		c-3.6,0-6.7-1.8-7.1-7.1h-20.9c0.8,15.1,13,22.6,28.7,22.6C586.3,97.9,595.9,88.2,595.9,75.8z M622.6,61.7c0-11.1,6-18.1,16.2-18.1
		c10.1,0,16.2,7,16.2,18.1c0,10.9-6.1,18-16.2,18C628.6,79.7,622.6,72.6,622.6,61.7z M674.9,61.7c0-21.2-16-36.1-36.1-36.1
		c-20,0-36.2,14.9-36.2,36.1s16.2,36.2,36.2,36.2c2.3,0,4.5-0.2,6.7-0.6l7.8,11.7h23.4l-14.9-19C669.8,83.6,674.9,73.6,674.9,61.7z
		 M683.5,67.6c0,20.1,12.8,30.3,29.8,30.3c16.9,0,30.9-10.2,30.9-30.3V26.7h-19.6v40.9c0,7.3-3.5,11.9-10.9,11.9
		c-7.4,0-10.7-4.6-10.7-11.9V26.7h-19.5V67.6L683.5,67.6z M803.4,97.2h20.7l-25.6-70.5h-22.6l-25.7,70.5h20.6l3.8-11.5h25
		L803.4,97.2z M794.7,70.7h-15.1l7.5-22.8L794.7,70.7z M858.4,26.7h-27.9v70.5h27.9c22.5,0,36.8-14.9,36.8-35.3
		C895.2,41.2,880.9,26.7,858.4,26.7z M850.1,79.9V43.7h6.8c11.3,0,18.4,6.5,18.4,18.2c0,11.6-7.1,18-18.4,18H850.1z"/>
</g>
</svg>
