<svg width="150" height="21" viewBox="0 0 150 21" fill="none" xmlns="http://www.w3.org/2000/svg">
<path d="M0 17.7323H5.36122V9.20752L7.99353 17.7323H12.582L15.2143 9.20752V17.7323H20.5513V0.634401H14.0068L10.336 10.898L6.5687 0.634401H0V17.7323Z" fill="white"/>
<path d="M40.7929 9.11092C40.7929 3.96705 36.9048 0.344604 32.0266 0.344604C27.1725 0.344604 23.212 3.96705 23.212 9.11092C23.212 14.2548 27.1725 17.9014 32.0266 17.9014C36.8565 17.9014 40.7929 14.2548 40.7929 9.11092ZM28.6698 9.11092C28.6698 6.79256 29.8289 5.29528 32.0266 5.29528C34.1759 5.29528 35.3592 6.79256 35.3592 9.11092C35.3592 11.381 34.1759 12.9024 32.0266 12.9024C29.8289 12.9024 28.6698 11.381 28.6698 9.11092Z" fill="white"/>
<path d="M52.6766 12.2504C52.6766 13.0956 52.2177 13.4337 51.2518 13.4337H48.8126V11.0187H51.2518C52.2177 11.0187 52.6766 11.4293 52.6766 12.2504ZM52.3143 6.11637C52.3143 6.93746 51.8555 7.2997 50.8895 7.2997H48.8126V4.88474H50.8895C51.8555 4.88474 52.3143 5.27113 52.3143 6.11637ZM58.1586 13.0473C58.1586 11.1395 56.9994 9.47317 54.8983 8.96603C56.5888 8.53133 57.7722 7.13065 57.7722 5.07793C57.7722 2.10753 55.5745 0.634401 52.1694 0.634401H43.4514V17.7323H52.4109C56.13 17.7323 58.1586 16.0419 58.1586 13.0473Z" fill="white"/>
<path d="M73.8943 12.4436C73.8943 7.17895 65.9491 7.5412 65.9491 5.39188C65.9491 4.81229 66.2872 4.52249 66.7219 4.52249C67.3014 4.52249 67.8569 4.83644 67.9052 5.87487H73.677C73.5321 2.32488 70.8756 0.344604 66.746 0.344604C63.0994 0.344604 60.2015 2.13168 60.2015 5.56093C60.1049 11.4051 68.1708 10.5599 68.195 12.8783C68.195 13.482 67.6878 13.7235 67.1566 13.7235C66.6253 13.7235 65.9491 13.5062 65.8525 12.2504H60.1532C60.3947 16.0902 63.4617 17.9014 67.3739 17.9014C71.5035 17.9014 73.8943 15.583 73.8943 12.4436Z" fill="white"/>
<path d="M81.4773 9.11092C81.4773 6.79256 82.6365 5.29528 84.8341 5.29528C86.9834 5.29528 88.1667 6.79256 88.1667 9.11092C88.1667 11.381 86.9834 12.9024 84.8341 12.9024C82.6365 12.9024 81.4773 11.381 81.4773 9.11092ZM93.6004 9.11092C93.6004 3.96705 89.7123 0.344604 84.8341 0.344604C79.98 0.344604 76.0195 3.96705 76.0195 9.11092C76.0195 14.2548 79.98 17.9014 84.8341 17.9014C85.2688 17.9014 85.7035 17.8772 86.114 17.8048L87.7562 20.5096H94.0834L90.6058 15.8245C92.4412 14.2548 93.6004 11.9123 93.6004 9.11092Z" fill="white"/>
<path d="M96.1623 10.2701C96.1623 15.3174 99.3018 17.9014 103.576 17.9014C107.851 17.9014 111.304 15.3174 111.304 10.2701V0.634401H105.967V10.2701C105.967 11.7432 105.315 12.83 103.697 12.83C102.079 12.83 101.499 11.7432 101.499 10.2701V0.634401H96.1623V10.2701Z" fill="white"/>
<path d="M126.15 17.7323H131.801L125.571 0.634401H119.388L113.133 17.7323H118.76L119.606 15.1483H125.305L126.15 17.7323ZM124.001 11.1153H120.91L122.455 6.35786L124.001 11.1153Z" fill="white"/>
<path d="M140.868 0.634401H133.744V17.7323H140.868C146.326 17.7323 149.755 14.0133 149.755 9.13507C149.755 4.20855 146.326 0.634401 140.868 0.634401ZM139.105 12.9507V5.31943H140.385C142.752 5.31943 144.321 6.64766 144.321 9.13507C144.321 11.6225 142.752 12.9507 140.385 12.9507H139.105Z" fill="white"/>
</svg>
