<svg width="54" height="55" viewBox="0 0 54 55" fill="none" xmlns="http://www.w3.org/2000/svg">
<path d="M30.3784 1.00435C30.056 0.971564 29.2608 1.10272 29.1533 2.14101V23.3879C29.1533 23.6939 29.2715 23.978 29.4865 24.1966L46.9819 41.9898C47.7771 42.6893 48.4971 42.1209 48.6798 41.8477C51.7963 37.4213 53.4513 32.2079 53.4513 26.7869C53.4513 13.3437 43.5322 2.26124 30.3784 1.00435ZM47.6052 39.4104L31.3886 22.9179V3.43069C42.7692 5.12475 51.2053 14.9503 51.2053 26.7978C51.2053 31.2898 49.9694 35.6179 47.6052 39.4104Z" fill="#98DABC" stroke="#98DABC" stroke-miterlimit="10"/>
<path d="M25.4348 26.0218C25.2091 25.7923 25.0909 25.4972 25.0909 25.1803V2.94971C25.0049 1.93327 24.1774 1.78025 23.8658 1.81304C10.712 3.06993 0.792969 14.1524 0.792969 27.6066C0.792969 41.8914 12.2165 53.5095 26.2622 53.5095C32.8069 53.5095 39.0399 50.9629 43.8113 46.3507C44.0263 46.143 44.4561 45.4654 43.8328 44.7222L25.4348 26.0218ZM26.2622 51.2361C13.4524 51.2361 3.02825 40.6345 3.02825 27.6066C3.02825 15.7591 11.4643 5.93345 22.8448 4.23939V25.1693C22.8448 26.0983 23.1995 26.9727 23.8443 27.6285L41.4148 45.4872C37.1915 49.2032 31.8504 51.2361 26.2622 51.2361Z" fill="#98DABC" stroke="#98DABC" stroke-miterlimit="10"/>
</svg>
