<svg width="48" height="48" viewBox="0 0 48 48" fill="none" xmlns="http://www.w3.org/2000/svg">
<path d="M46.4989 19.4574C47.2933 18.442 47.7383 17.1981 47.7677 15.9106C47.7971 14.623 47.4094 13.3603 46.6622 12.3098L39.6318 2.49571C39.0794 1.72401 38.3502 1.09496 37.5049 0.660878C36.6596 0.226797 35.7225 0.000224627 34.7717 0L12.9937 0C12.0429 0.000224627 11.1058 0.226797 10.2605 0.660878C9.41519 1.09496 8.686 1.72401 8.13357 2.49571L1.10321 12.3098C0.357448 13.3611 -0.0288079 14.6241 0.00167511 15.9115C0.0321582 17.199 0.477759 18.4423 1.27245 19.4574L23.8827 47.8652L46.4989 19.4574ZM14.4312 17.8691L20.0061 36.5958L5.09126 17.8691H14.4312ZM42.6741 17.8691L27.7692 36.5958L33.3342 17.8691H42.6741ZM29.1809 17.8691L23.8827 35.6964L18.5845 17.8691H29.1809ZM18.5587 13.8982L21.4019 3.9709H26.3635L29.2067 13.8982H18.5587ZM36.3924 4.8028L42.9071 13.8982H33.3501L30.5049 3.9709H34.7717C35.0888 3.97087 35.4012 4.04634 35.6831 4.19104C35.965 4.33574 36.2082 4.54548 36.3924 4.8028ZM11.373 4.8028C11.5572 4.54548 11.8004 4.33574 12.0823 4.19104C12.3642 4.04634 12.6766 3.97087 12.9937 3.9709H17.2605L14.4173 13.8982H4.8603L11.373 4.8028Z" fill="#98DABC"/>
</svg>
