<svg width="23" height="18" viewBox="0 0 23 18" fill="none" xmlns="http://www.w3.org/2000/svg">
<path d="M7.23304 17.3874C15.9123 17.3874 20.6595 10.6977 20.6595 4.89642C20.6595 4.70641 20.6595 4.51726 20.6457 4.32896C21.5692 3.7075 22.3664 2.93802 23 2.05655C22.1388 2.41175 21.2252 2.64458 20.2897 2.74726C21.2748 2.19867 22.0121 1.33573 22.3643 0.319078C21.438 0.830484 20.4246 1.19087 19.3678 1.38467C18.6564 0.680853 17.7154 0.214802 16.6905 0.058639C15.6657 -0.097524 14.614 0.0649068 13.6984 0.520796C12.7827 0.976685 12.0541 1.70062 11.6253 2.58056C11.1965 3.46051 11.0913 4.44742 11.3261 5.38856C9.45002 5.30101 7.61468 4.84741 5.93923 4.05722C4.26377 3.26702 2.78565 2.15789 1.6008 0.801804C0.997365 1.76825 0.812544 2.91233 1.08397 4.0011C1.3554 5.08987 2.06266 6.04146 3.06176 6.66214C2.31076 6.64167 1.57612 6.45319 0.92 6.11265V6.16829C0.920298 7.18186 1.29744 8.16413 1.98746 8.9485C2.67748 9.73287 3.63789 10.271 4.7058 10.4717C4.01109 10.648 3.28217 10.6738 2.57508 10.5471C2.87674 11.4193 3.46383 12.182 4.25427 12.7287C5.04471 13.2753 5.999 13.5784 6.98372 13.5958C6.00534 14.3112 4.88493 14.8402 3.68659 15.1524C2.48825 15.4647 1.2355 15.554 0 15.4154C2.15801 16.7037 4.66893 17.3871 7.23304 17.384" fill="white"/>
</svg>
